<svg width="82" height="41" viewBox="0 0 82 41" fill="none" xmlns="http://www.w3.org/2000/svg">
<path d="M20.5 2.82174e-06C17.8079 2.95214e-06 15.1422 0.53025 12.655 1.56047C10.1678 2.59069 7.90791 4.10071 6.00431 6.00431C4.10071 7.90792 2.59069 10.1678 1.56047 12.655C0.530247 15.1422 -1.03253e-06 17.8079 -8.08661e-07 20.5C-5.8479e-07 23.1921 0.530248 25.8578 1.56047 28.345C2.59069 30.8322 4.10071 33.0921 6.00431 34.9957C7.90791 36.8993 10.1678 38.4093 12.655 39.4395C15.1422 40.4698 17.8079 41 20.5 41L20.5 20.5L20.5 2.82174e-06Z" fill="#ED3729"/>
<path d="M41 2.91861e-06C38.3079 3.03629e-06 35.6422 0.53025 33.155 1.56047C30.6678 2.59069 28.4079 4.10071 26.5043 6.00431C24.6007 7.90792 23.0907 10.1678 22.0605 12.655C21.0302 15.1422 20.5 17.8079 20.5 20.5C20.5 23.1921 21.0302 25.8578 22.0605 28.345C23.0907 30.8322 24.6007 33.0921 26.5043 34.9957C28.4079 36.8993 30.6678 38.4093 33.155 39.4395C35.6422 40.4698 38.3079 41 41 41L41 20.5L41 2.91861e-06Z" fill="#ED3729"/>
<path d="M61.5 2.91861e-06C58.8079 3.03629e-06 56.1422 0.53025 53.655 1.56047C51.1678 2.59069 48.9079 4.10071 47.0043 6.00431C45.1007 7.90792 43.5907 10.1678 42.5605 12.655C41.5302 15.1422 41 17.8079 41 20.5C41 23.1921 41.5302 25.8578 42.5605 28.345C43.5907 30.8322 45.1007 33.0921 47.0043 34.9957C48.9079 36.8993 51.1678 38.4093 53.655 39.4395C56.1422 40.4698 58.8079 41 61.5 41L61.5 20.5L61.5 2.91861e-06Z" fill="#ED3729"/>
</svg>
